# xmcd
#
# Track frame offsets:
#	150
#	16887
#	33832
#	51040
#	70217
#	87235
#	105875
#	128079
#	146942
#	159937
#	184095
#	203872
#
# Disc length: 2962 seconds
#
# Revision: 4
# Processed by: cddbd v1.5.2PL0 Copyright (c) Steve Scherf et al.
# Submitted via: EasyCDDAExtractor 2010.6.0.0
#
DISCID=970b900c
DTITLE=Steve Cohen - Duo Personality - with Peter Roller (guitar)
DYEAR=1997
DGENRE=Blues
TTITLE0=Stones in My Pathway (guit. Paul Black, 2nd guit. Steve Cohen)
TTITLE1=Corrina
TTITLE2=Good Morning Miss Brown 
TTITLE3=Blue Fog 
TTITLE4=Walkin Blues 
TTITLE5=Treated Wrong 
TTITLE6=Hard Life
TTITLE7=Billy the Kid (voc. and guit. Paul Black)
TTITLE8=What is it About Love (2nd guit. Steve Cohen
TTITLE9=Homeless Blues (guit. Steve Cohen, harm. Jim Liban)
TTITLE10=The Way I Feel 
TTITLE11=Soon Gone (2nd guit. Steve Cohen)
EXTD=Harmonica:  Steve Cohen where heard, except Homeless Blues (Jim Liban]\nV
EXTD=ocals:  Steve Cohen where heard, except Billy the Kid (Paul Black]\nGuita
EXTD=r:  Peter Roller where heard except Billy the Kid and Stones in my Pathway 
EXTD=(Paul Black) - Homeless Blues (Steve Cohen]\n2nd Guitar:  Steve C
EXTD=ohen - Soon Gone, What is it About Love, Stones in my          Pathway\n
EXTT0=
EXTT1=
EXTT2=
EXTT3=
EXTT4=
EXTT5=
EXTT6=
EXTT7=
EXTT8=
EXTT9=
EXTT10=
EXTT11=
PLAYORDER=
